<svg width="20" height="18" viewBox="0 0 20 18" fill="none" xmlns="http://www.w3.org/2000/svg">
<path fillRule="evenodd" clipRule="evenodd" d="M7.84915 8.12564C7.86618 6.94119 8.83726 5.99315 10.0218 6.00465C11.2064 6.01615 12.1588 6.98279 12.1529 8.16747C12.1468 9.35203 11.1847 10.3091 9.99999 10.3085C8.80435 10.2972 7.84287 9.3214 7.84915 8.12564Z" stroke="black" strokeWidth="2" strokeLinecap="round" strokeLinejoin="round"/>
<path d="M0.357822 5.24509C-0.0269179 5.5209 -0.115237 6.05637 0.160567 6.44111C0.436371 6.82589 0.971842 6.91412 1.35658 6.63835L0.357822 5.24509ZM6.27774 2.05604L6.77712 2.75268L6.77805 2.752L6.27774 2.05604ZM13.7211 2.05604L13.2208 2.752L13.2218 2.75272L13.7211 2.05604ZM18.6435 6.63847C19.0283 6.91412 19.5637 6.82578 19.8395 6.44104C20.1152 6.05626 20.0269 5.52081 19.6421 5.24505L18.6435 6.63847ZM3.86518 8.12566C3.86518 7.65229 3.48142 7.26852 3.00804 7.26852C2.53466 7.26852 2.15091 7.65229 2.15091 8.12566H3.86518ZM3.00804 12.4925L3.86518 12.4989V12.4925H3.00804ZM7.31087 16.8594L7.30459 17.7166H7.31087V16.8594ZM12.6891 16.8594V17.7166L12.6954 17.7164L12.6891 16.8594ZM16.9919 12.4925H16.1348V12.4989L16.9919 12.4925ZM17.8491 8.12566C17.8491 7.65229 17.4653 7.26852 16.9919 7.26852C16.5186 7.26852 16.1348 7.65229 16.1348 8.12566H17.8491ZM1.35658 6.63835L6.77712 2.75268L5.77836 1.3594L0.357822 5.24509L1.35658 6.63835ZM6.77805 2.752C8.70275 1.36836 11.2961 1.36836 13.2208 2.752L14.2215 1.36008C11.6988 -0.45336 8.30001 -0.45336 5.77742 1.36008L6.77805 2.752ZM13.2218 2.75272L18.6435 6.63847L19.6421 5.24505L14.2204 1.35936L13.2218 2.75272ZM2.15091 8.12566V12.4925H3.86518V8.12566H2.15091ZM2.15093 12.4862C2.14072 13.8632 2.67798 15.1879 3.64447 16.1687L4.86557 14.9655C4.2182 14.3085 3.85835 13.4213 3.86518 12.4989L2.15093 12.4862ZM3.64447 16.1687C4.61098 17.1496 5.92757 17.7065 7.30459 17.7166L7.31716 16.0023C6.39483 15.9954 5.51295 15.6225 4.86557 14.9655L3.64447 16.1687ZM7.31087 17.7166H12.6891V16.0023H7.31087V17.7166ZM12.6954 17.7164C14.0724 17.7064 15.389 17.1496 16.3555 16.1687L15.1345 14.9655C14.4871 15.6225 13.6051 15.9954 12.6828 16.0023L12.6954 17.7164ZM16.3555 16.1687C17.322 15.1879 17.8593 13.8632 17.8491 12.4862L16.1348 12.4989C16.1417 13.4213 15.7818 14.3085 15.1345 14.9655L16.3555 16.1687ZM17.8491 12.4925V8.12566H16.1348V12.4925H17.8491Z" fill="black"/>
</svg>
