<svg width="14" height="14" viewBox="0 0 14 14" fill="none" xmlns="http://www.w3.org/2000/svg">
<path d="M2.0555 11.934L2.38914 11.6047L2.08208 11.2506C1.05869 10.0702 0.500406 8.57942 0.500406 7.00024C0.500406 3.41656 3.4166 0.500244 7.00019 0.500244C10.5838 0.500244 13.5 3.41656 13.5 7.00024C13.5 10.5839 10.5837 13.5002 7.00019 13.5002C7.0002 13.5002 5.37777 13.492 3.75108 13.4836L1.51651 13.4722L0.89864 13.469C0.655579 13.4678 0.510159 13.4671 0.502048 13.467L2.0555 11.934ZM10.0096 4.02281H4.02403C3.47243 4.02281 3.02524 4.47001 3.02524 5.02162C3.02524 5.55674 3.44606 5.99363 3.97489 6.01925C3.44611 6.04487 3.02524 6.48174 3.02524 7.01687C3.02524 7.552 3.44609 7.9889 3.97493 8.0145C3.44608 8.0401 3.02524 8.47699 3.02524 9.01212C3.02524 9.56373 3.47243 10.0109 4.02403 10.0109H10.0096C10.5613 10.0109 11.0084 9.56371 11.0084 9.01212C11.0084 8.47699 10.5875 8.0401 10.0587 8.0145C10.5875 7.9889 11.0084 7.552 11.0084 7.01687C11.0084 6.48174 10.5875 6.04484 10.0587 6.01925C10.5875 5.99365 11.0084 5.55675 11.0084 5.02162C11.0084 4.47003 10.5613 4.02281 10.0096 4.02281Z" fill="#A5A5A5" stroke="#A5A5A5"/>
</svg>
