<svg width="12" height="13" viewBox="0 0 12 13" fill="none" xmlns="http://www.w3.org/2000/svg">
<path d="M5.71289 0C3.82284 0 2.28516 1.53768 2.28516 3.42773C2.28516 5.31779 3.82284 6.85547 5.71289 6.85547C7.60294 6.85547 9.14062 5.31779 9.14062 3.42773C9.14062 1.53768 7.60294 0 5.71289 0Z" fill="#A5A5A5"/>
<path d="M9.97765 9.0948C9.03922 8.14194 7.79515 7.61719 6.47461 7.61719H4.95117C3.63066 7.61719 2.38657 8.14194 1.44813 9.0948C0.514287 10.043 0 11.2946 0 12.6191C0 12.8295 0.170523 13 0.380859 13H11.0449C11.2553 13 11.4258 12.8295 11.4258 12.6191C11.4258 11.2946 10.9115 10.043 9.97765 9.0948Z" fill="#A5A5A5"/>
</svg>
