<svg width="14" height="14" viewBox="0 0 14 14" fill="none" xmlns="http://www.w3.org/2000/svg">
<path d="M1.93138 2.02733L1.93137 2.02732C1.80075 2.15476 1.66354 2.29264 1.52326 2.4336C1.31313 2.64476 1.09612 2.86283 0.884095 3.06304C0.652724 3.28481 0.533783 3.54802 0.508263 3.88068C0.462104 4.50153 0.613542 5.10557 0.851746 5.74901L1.93138 2.02733ZM1.93138 2.02733L1.93353 2.0252M1.93138 2.02733L1.93353 2.0252M1.93353 2.0252C2.08523 1.8754 2.22104 1.83277 2.32363 1.83291C2.42675 1.83306 2.56362 1.87656 2.71624 2.02631L2.7165 2.02657M1.93353 2.0252L2.7165 2.02657M2.7165 2.02657C2.99535 2.29978 3.27184 2.57908 3.55148 2.86158L3.55148 2.86158M2.7165 2.02657L3.55148 2.86158M3.55148 2.86158L3.55327 2.86337M3.55148 2.86158L3.55327 2.86337M3.55327 2.86337C3.64471 2.95482 3.7358 3.04558 3.82663 3.1361C4.00723 3.31607 4.18682 3.49503 4.36618 3.67627L4.72158 3.32457M3.55327 2.86337L3.34812 5.50942M3.34812 5.50942L3.3484 5.50915C3.6054 5.26057 3.85657 5.00836 4.11156 4.75231C4.19726 4.66625 4.28339 4.57976 4.37033 4.49282C4.53847 4.32347 4.58008 4.18456 4.57981 4.08764C4.57955 3.9898 4.53633 3.84846 4.36593 3.67602L4.72158 3.32457M3.34812 5.50942C3.26036 5.59444 3.15737 5.72544 3.12527 5.91192C3.0945 6.0907 3.14307 6.24134 3.18457 6.33764M3.34812 5.50942L4.72443 4.84583M4.72158 3.32457C5.19733 3.80602 5.20017 4.36723 4.72443 4.84583M4.72158 3.32457C4.54105 3.14214 4.35925 2.96098 4.17787 2.78024C4.08735 2.69003 3.99693 2.59992 3.90682 2.50982L3.9068 2.5098C3.62763 2.22778 3.34845 1.94575 3.06643 1.66943L4.72443 4.84583M4.72443 4.84583C4.63897 4.93128 4.55369 5.01692 4.46841 5.10255C4.21255 5.35949 3.95668 5.61642 3.69601 5.86854C3.60485 5.95686 3.59631 6.03092 3.64474 6.14203L3.1832 6.33433C3.18366 6.33544 3.18411 6.33654 3.18457 6.33764M3.18457 6.33764C3.43754 6.94353 3.79879 7.47144 4.18538 7.94724L4.1856 7.94751C4.9565 8.89494 5.83937 9.75126 6.90336 10.4174L6.9057 10.4188C7.03443 10.4984 7.16474 10.5652 7.28144 10.6234C7.30925 10.6373 7.33598 10.6505 7.36188 10.6633C7.45013 10.707 7.52877 10.7459 7.60766 10.7889L7.61029 10.7903C7.72579 10.8522 7.89656 10.9135 8.09864 10.8724C8.28922 10.8337 8.41834 10.7209 8.49322 10.6438L8.49378 10.6432C8.82843 10.2973 9.17213 9.9564 9.52014 9.61125M3.18457 6.33764L9.52014 9.61125M9.52014 9.61125C9.67337 9.46004 9.80918 9.41724 9.90992 9.4171C10.0102 9.41696 10.145 9.45893 10.2975 9.61041L10.2982 9.61112C10.8553 10.1626 11.4096 10.7169 11.9611 11.274L11.9618 11.2748C12.1208 11.4347 12.1634 11.573 12.1629 11.6741C12.1625 11.7759 12.1182 11.9166 11.9561 12.0797L11.9556 12.0802C11.8635 12.1731 11.7634 12.2707 11.6598 12.3716C11.4382 12.5874 11.2007 12.8187 10.9917 13.0538M9.52014 9.61125L0.85177 5.74908C1.34007 7.06747 2.08663 8.24337 3.00486 9.33867M10.9917 13.0538C10.9919 13.0536 10.9921 13.0534 10.9922 13.0532L11.365 13.3865L10.9912 13.0543C10.9914 13.0541 10.9916 13.054 10.9917 13.0538ZM10.9917 13.0538C10.6831 13.3986 10.2987 13.5248 9.79142 13.4969L9.79063 13.4969C8.97943 13.4535 8.21383 13.1824 7.43555 12.8057M7.43555 12.8057C5.71158 11.9684 4.24013 10.8077 3.00486 9.33867M7.43555 12.8057L7.21712 13.2555L7.43498 12.8054C7.43517 12.8055 7.43536 12.8056 7.43555 12.8057ZM3.00486 9.33867C3.00497 9.3388 3.00507 9.33892 3.00518 9.33905L2.62202 9.66028L3.00472 9.3385C3.00476 9.33856 3.00481 9.33861 3.00486 9.33867ZM7.8467 10.3497C7.75843 10.3016 7.6684 10.2571 7.57852 10.2126C7.43923 10.1437 7.30028 10.075 7.16869 9.99359L7.8467 10.3497ZM7.8467 10.3497C7.9635 10.4124 8.04042 10.3924 8.13443 10.2956L7.8467 10.3497ZM13.4995 6.32669C13.5021 6.35391 13.4941 6.37756 13.4727 6.39961C13.4494 6.42364 13.4117 6.44254 13.3648 6.44254C13.2874 6.44254 13.1765 6.3709 13.1589 6.22156C12.8282 3.40901 10.5911 1.17188 7.77856 0.841206C7.62922 0.823649 7.55758 0.712691 7.55758 0.635318C7.55758 0.588441 7.57648 0.550726 7.60051 0.527404C7.62256 0.506004 7.64621 0.498026 7.67343 0.500608C10.7497 0.792373 13.2077 3.25044 13.4995 6.32669ZM10.875 6.44254C10.8347 6.44254 10.7894 6.42743 10.742 6.38298C10.6922 6.33616 10.6497 6.26402 10.6321 6.18024C10.4872 5.49362 10.1471 4.86374 9.64174 4.35838C9.13638 3.85302 8.5065 3.51294 7.81988 3.36807C7.73611 3.35039 7.66397 3.30797 7.61714 3.2581C7.57269 3.21075 7.55758 3.16538 7.55758 3.12516C7.55758 3.07749 7.57713 3.0412 7.59772 3.02153C7.60745 3.01224 7.61595 3.00794 7.62169 3.00602C7.62656 3.00438 7.63359 3.00294 7.64553 3.00472C9.36958 3.26118 10.7389 4.63054 10.9954 6.35459C10.9972 6.36653 10.9957 6.37356 10.9941 6.37843C10.9922 6.38418 10.9879 6.39267 10.9786 6.4024C10.9589 6.42299 10.9226 6.44254 10.875 6.44254Z" fill="#A5A5A5" stroke="#A5A5A5"/>
</svg>
