<svg width="66" height="80" viewBox="0 0 66 80" fill="none" xmlns="http://www.w3.org/2000/svg">
<path d="M29.6984 25.9318C30.3025 26.1624 30.9802 25.8588 31.2106 25.2537L31.6036 24.2218H34.3761L34.7642 25.2504C34.9412 25.7196 35.3872 26.0088 35.8608 26.0088C35.9983 26.0088 36.1381 25.9844 36.2744 25.933C36.8798 25.7046 37.1855 25.0285 36.9569 24.4229L34.2494 17.2483C34.2455 17.2379 34.2412 17.2271 34.237 17.2168C34.0301 16.7133 33.5448 16.3882 33.0006 16.3882C33.0003 16.3882 33 16.3882 32.9997 16.3882C32.455 16.3885 31.9697 16.7144 31.7634 17.2183C31.7598 17.2274 31.7561 17.2362 31.7528 17.2454L29.0205 24.4196C28.79 25.0243 29.0936 25.7013 29.6984 25.9318ZM33.4916 21.8782H32.4962L32.9961 20.5657L33.4916 21.8782Z" fill="#3D8072"/>
<path d="M39.3301 26.0084C39.9774 26.0084 40.502 25.4839 40.502 24.8365V21.3326L43.2768 25.3508C43.6105 25.8333 44.1716 26.0376 44.7063 25.8708C45.2499 25.7012 45.601 25.1989 45.601 24.58L45.533 17.5486C45.5268 16.9053 45.0034 16.3879 44.3615 16.3879C44.3576 16.3879 44.3537 16.3879 44.3499 16.3879C43.7026 16.3942 43.183 16.924 43.1893 17.5711L43.224 21.1497L40.2945 16.9075C40.003 16.4854 39.4715 16.3023 38.9813 16.4547C38.4918 16.6073 38.1582 17.0606 38.1582 17.5734V24.8364C38.1582 25.4839 38.6827 26.0084 39.3301 26.0084Z" fill="#3D8072"/>
<path d="M48.2482 26.0085C48.8956 26.0085 49.4201 25.484 49.4201 24.8366V23.5699L51.6073 25.6801C51.8346 25.8994 52.1279 26.0087 52.4207 26.0087C52.7278 26.0087 53.0343 25.8887 53.2642 25.6504C53.7135 25.1847 53.7003 24.4427 53.2345 23.9935L50.1904 21.0565L52.9556 18.5146C53.4321 18.0766 53.4634 17.3352 53.0253 16.8588C52.5874 16.3822 51.8459 16.3512 51.3695 16.7891L49.4199 18.581V17.5601C49.4199 16.9127 48.8954 16.3882 48.2481 16.3882C47.6007 16.3882 47.0762 16.9127 47.0762 17.5601V24.8366C47.0763 25.484 47.6009 26.0085 48.2482 26.0085Z" fill="#3D8072"/>
<path d="M21.4082 26.0085C22.0555 26.0085 22.5801 25.484 22.5801 24.8366V22.2454H25.272V24.8366C25.272 25.484 25.7965 26.0085 26.4438 26.0085C27.0912 26.0085 27.6157 25.484 27.6157 24.8366V17.5601C27.6157 16.9127 27.0912 16.3882 26.4438 16.3882C25.7965 16.3882 25.272 16.9127 25.272 17.5601V19.9016H22.5801V17.5601C22.5801 16.9127 22.0555 16.3882 21.4082 16.3882C20.7609 16.3882 20.2363 16.9127 20.2363 17.5601V24.8366C20.2363 25.484 20.7609 26.0085 21.4082 26.0085Z" fill="#3D8072"/>
<path d="M18.6509 31.64L20.7837 34.9061L20.7754 38.273C20.7738 38.9203 21.2973 39.4463 21.9443 39.4478H21.9473C22.5932 39.4478 23.1176 38.925 23.1191 38.2789L23.1274 34.908L25.2435 31.657C25.5967 31.1145 25.4432 30.3886 24.9009 30.0356C24.3585 29.6822 23.6324 29.8359 23.2795 30.3783L21.9548 32.4131L20.613 30.3586C20.2591 29.8166 19.5334 29.6645 18.9912 30.0181C18.4495 30.372 18.2968 31.0981 18.6509 31.64Z" fill="#3D8072"/>
<path d="M36.7277 36.0065C36.7277 37.1997 37.2938 38.1663 38.4104 38.8799C38.9988 39.2557 39.6618 39.4468 40.381 39.4479H40.3864C41.0038 39.4479 41.5843 39.3133 42.1118 39.0475C43.4118 38.3929 44.1277 37.311 44.1277 36.0011V30.9993C44.1277 30.3519 43.6032 29.8274 42.9558 29.8274C42.3085 29.8274 41.7839 30.3519 41.7839 30.9993V36.0011C41.7839 36.3061 41.696 36.6327 41.0575 36.9543C40.8574 37.0552 40.6379 37.1041 40.3866 37.1041C40.3858 37.1041 40.3849 37.1041 40.3841 37.1041C40.1143 37.1038 39.8813 37.0385 39.6721 36.9049C39.1172 36.5504 39.0713 36.2777 39.0713 36.0066V30.9994C39.0713 30.3521 38.5468 29.8275 37.8994 29.8275C37.2521 29.8275 36.7275 30.3521 36.7275 30.9994L36.7277 36.0065Z" fill="#3D8072"/>
<path d="M13.7627 18.7319H14.5921V24.8366C14.5921 25.484 15.1166 26.0085 15.764 26.0085C16.4113 26.0085 16.9358 25.484 16.9358 24.8366V18.7319H17.7813C18.4286 18.7319 18.9532 18.2074 18.9532 17.5601C18.9532 16.9127 18.4286 16.3882 17.7813 16.3882H13.7627C13.1154 16.3882 12.5908 16.9127 12.5908 17.5601C12.5908 18.2074 13.1154 18.7319 13.7627 18.7319Z" fill="#3D8072"/>
<path d="M30.6305 29.8275C27.9781 29.8275 25.8203 31.9855 25.8203 34.6377C25.8203 37.2899 27.9783 39.4478 30.6305 39.4478C33.283 39.4478 35.4408 37.2899 35.4408 34.6377C35.4408 31.9855 33.2828 29.8275 30.6305 29.8275ZM30.6305 37.1041C29.2705 37.1041 28.1641 35.9977 28.1641 34.6377C28.1641 33.2777 29.2705 32.1713 30.6305 32.1713C31.9905 32.1713 33.097 33.2777 33.097 34.6377C33.097 35.9977 31.9905 37.1041 30.6305 37.1041Z" fill="#3D8072"/>
<path d="M63.7969 28.0734L60.347 24.4797V9.46422C60.347 7.37484 58.6472 5.67484 56.5577 5.67484H42.2933C42.2897 5.67109 42.2867 5.66687 42.2831 5.66313L39.5102 2.77469C37.7923 0.985469 35.4803 0 33 0C30.5197 0 28.2077 0.985469 26.49 2.77469L23.7056 5.675H9.44234C7.35281 5.675 5.65297 7.375 5.65297 9.46437V24.48L2.20313 28.0734C1.05203 29.2725 0.417969 30.8483 0.417969 32.5103V76.2106C0.417969 78.3002 2.11797 80 4.20734 80H61.7925C63.8819 80 65.5819 78.3002 65.5819 76.2106V32.5103C65.5819 30.8483 64.948 29.2725 63.7969 28.0734ZM62.1061 29.6967C62.8361 30.457 63.2381 31.4564 63.2381 32.5105V35.168L60.3469 38.1797V27.8641L62.1061 29.6967ZM28.1806 4.39781C29.4523 3.07328 31.1637 2.34375 33 2.34375C34.8363 2.34375 36.5477 3.07328 37.8194 4.39781L39.0453 5.67484H26.9547L28.1806 4.39781ZM9.44234 8.01859H56.5575C57.3547 8.01859 58.0031 8.66703 58.0031 9.46422V40.6209L45.5639 53.5784L39.5098 47.2722C37.7922 45.483 35.4802 44.4975 32.9998 44.4975C30.5195 44.4975 28.2075 45.483 26.4898 47.2722L20.4358 53.5784L7.99656 40.6209V9.46422C7.99672 8.66719 8.64531 8.01859 9.44234 8.01859ZM18.8116 55.2706L2.76188 71.9891V38.5522L18.8116 55.2706ZM2.76188 32.5103C2.76188 31.4562 3.16391 30.4569 3.89391 29.6966L5.65313 27.8641V38.1794L2.76188 35.1677V32.5103ZM61.7925 77.6562H4.2075C3.41031 77.6562 2.76188 77.0078 2.76188 76.2106V75.3733L28.1808 48.8953C29.4525 47.5706 31.1639 46.8412 33.0002 46.8412C34.8364 46.8412 36.5478 47.5708 37.8195 48.8953L47.2317 58.6997C47.68 59.1667 48.4217 59.1814 48.8886 58.7334C49.3553 58.2853 49.3706 57.5434 48.9223 57.0766L47.1886 55.2706L63.2383 38.5522V71.9891L52.6914 61.0028C52.2431 60.5359 51.5014 60.5209 51.0345 60.9691C50.5678 61.4172 50.5525 62.1591 51.0008 62.6259L63.2383 75.3733V76.2105C63.2381 77.0078 62.5897 77.6562 61.7925 77.6562Z" fill="#3D8072"/>
</svg>
