<svg width="56" height="58" viewBox="0 0 56 58" fill="none" xmlns="http://www.w3.org/2000/svg">
<path d="M4.43057 11.5641H4.41254C3.589 11.4049 2.84075 11.9391 2.70879 12.7762L0.509324 26.7414C-0.0447955 30.2595 0.567304 33.8561 2.24913 36.9936L9.50024 51.5L20.0002 48.5L18.2091 40.6577C17.9852 39.0352 17.2336 37.5276 16.0818 36.3631L11.3807 31.5954L9.5913 24.9032C9.37928 24.1106 8.59454 23.6678 7.80187 23.8804L7.27458 24.0164C6.48032 24.231 6.03899 25.0113 6.25143 25.8054L8.8566 35.5483L6.62556 36.1433L4.02039 26.4003C3.75083 25.3925 3.92101 24.3664 4.41254 23.5253C4.39768 23.3991 4.40374 23.2712 4.43057 23.147L5.60241 13.1832C5.69342 12.4142 5.19785 11.7368 4.44412 11.5832C4.43951 11.5755 4.43504 11.568 4.43057 11.5601V11.5641Z" fill="white"/>
<path d="M21.6347 47.6741L6.04883 51.8476L7.53163 57.4175L23.1175 53.2444L21.6347 47.6741Z" fill="#3D8072"/>
<path d="M21.6354 47.6729L20.8466 47.8854L22.2753 53.244L7.47852 57.2055L7.5326 57.4179L23.1182 53.2449L21.6354 47.6729Z" fill="#3D8072"/>
<path d="M4.41362 11.5647C4.13051 11.5092 3.86816 11.5647 3.62485 11.6546C4.27286 11.8738 4.69516 12.4782 4.61194 13.1825L3.44009 23.1468C3.41327 23.271 3.40721 23.3992 3.42206 23.5254C2.93054 24.3669 2.76035 25.3925 3.02991 26.4008L5.63508 36.14L6.559 35.892L4.02147 26.4006C3.75191 25.3924 3.9221 24.3667 4.41362 23.5253C4.39877 23.3991 4.40483 23.2709 4.43165 23.1467L5.6035 13.1823C5.6945 12.4133 5.19894 11.7356 4.44521 11.5823C4.44059 11.5747 4.43612 11.5671 4.43165 11.5592L4.41362 11.5647ZM8.38448 23.8365C8.19612 23.8135 8.00127 23.8365 7.8031 23.8827L7.64993 23.9218C8.09603 24.0671 8.46756 24.4057 8.60097 24.9044L10.3902 31.5968L15.0912 36.3605C16.2431 37.525 16.9945 39.0329 17.2185 40.6554L17.9487 45.996L8.4478 48.5513L8.574 48.7856L18.9403 45.996L18.2101 40.6554C17.9861 39.0329 17.2347 37.525 16.0827 36.3605L11.3818 31.5968L9.59253 24.9044C9.43359 24.31 8.94956 23.9086 8.38448 23.8365Z" fill="white"/>
<path d="M51.5681 11.5641H51.5862C52.4097 11.4049 53.1579 11.9391 53.2899 12.7762L55.4894 26.7414C56.0435 30.2595 55.4314 33.8561 53.7496 36.9936L46 51.5L36 48.5L37.7895 40.6577C38.0135 39.0352 38.7651 37.5276 39.9169 36.3631L44.618 31.5954L46.4074 24.9032C46.6194 24.1106 47.4041 23.6678 48.1968 23.8804L48.7241 24.0164C49.5184 24.231 49.9597 25.0113 49.7473 25.8054L47.1421 35.5483L49.3731 36.1433L51.9783 26.4003C52.2479 25.3925 52.0777 24.3664 51.5862 23.5253C51.601 23.3991 51.5949 23.2712 51.5681 23.147L50.3963 13.1832C50.3053 12.4142 50.8008 11.7368 51.5546 11.5832C51.5592 11.5755 51.5638 11.568 51.5681 11.5601V11.5641Z" fill="white"/>
<path d="M34.3646 47.6741L49.9505 51.8477L48.4677 57.4176L32.8818 53.2446L34.3646 47.6741Z" fill="#3D8072"/>
<path d="M34.3634 47.6729L34.2822 47.975L48.741 51.8463L47.3392 57.1148L48.4661 57.4168L49.9489 51.8463L34.3634 47.6729Z" fill="#3D8072"/>
<path d="M51.5674 11.5647C51.5629 11.5726 51.5584 11.5802 51.5538 11.5878C51.4804 11.6109 51.4237 11.6455 51.3555 11.6687C51.8069 11.8532 52.1586 12.2427 52.2434 12.782L54.4428 26.7484C54.997 30.2665 54.3849 33.8595 52.703 36.9967L46.5102 48.5431L47.4252 48.7913L53.7487 36.9971C55.4305 33.8596 56.0425 30.2666 55.4885 26.7488L53.2892 12.7824C53.1572 11.9452 52.4091 11.4105 51.5854 11.57L51.5674 11.5647ZM47.6147 23.8366C47.5155 23.8596 47.4281 23.8989 47.3352 23.9312L47.6777 24.0166C48.472 24.2312 48.9133 25.0114 48.7009 25.8058L46.0957 35.545L48.3267 36.14L48.3944 35.8785L47.1413 35.5449L49.7465 25.8057C49.959 25.0113 49.5176 24.2301 48.7234 24.0164L48.1961 23.8804C47.9979 23.8275 47.8031 23.8112 47.6147 23.8343V23.8366Z" fill="white"/>
<path d="M21.6566 0.000572189C17.5329 0.000572189 14.1611 3.33914 14.1611 7.44341C14.1611 7.44341 14.1611 7.44342 14.1611 7.46649C14.1634 9.65716 15.2561 11.4978 16.5971 12.9504C20.1209 16.7685 27.1248 24.9922 27.1248 24.9922C27.5799 25.5215 28.3968 25.5295 28.8625 25.0153C28.8625 25.0153 36.346 16.5682 39.9524 12.3943C41.13 11.0318 41.8404 9.31403 41.8433 7.47197C41.8433 7.47197 41.8433 7.47196 41.8433 7.44889C41.8433 3.34462 38.4716 0.00619725 34.3479 0.00619725C30.605 0.00619725 28.647 2.33821 28.0299 3.07002C27.1769 2.28297 24.3671 0.0676424 21.6568 0L21.6566 0.000572189Z" fill="#3D8072"/>
<path d="M21.6557 2.31685C24.3994 2.31685 27.1069 5.34865 27.1069 5.34865C27.5693 5.91373 28.4333 5.91373 28.8956 5.34865C28.8956 5.34865 31.6032 2.31685 34.3468 2.31685C37.2318 2.31685 39.5425 4.59824 39.5425 7.44341C39.5406 8.68938 39.0455 9.90175 38.1967 10.8838C34.8984 14.701 29.0283 21.3337 28.0097 22.4825C27.018 21.3189 21.6117 14.9664 18.2997 11.3776C17.189 10.1742 16.4614 8.85337 16.46 7.44326C16.46 4.5981 18.7708 2.31685 21.6557 2.31685Z" fill="#3D8072"/>
<path d="M21.6584 2.31672C21.435 2.31672 21.2206 2.35364 21.0049 2.37903C23.5665 2.70685 25.9537 5.34924 25.9537 5.34924C26.3263 5.80442 26.9492 5.87091 27.4231 5.59241C27.3101 5.52534 27.1967 5.45856 27.1076 5.34924C27.1076 5.34924 24.4021 2.316 21.6585 2.316L21.6584 2.31672ZM34.3459 2.31672C34.1774 2.31672 34.0131 2.35811 33.8456 2.37903C36.4154 2.6956 38.3887 4.81993 38.3887 7.44472C38.3868 8.69069 37.8943 9.90103 37.0455 10.8834C33.9361 14.482 28.9022 20.1716 27.4409 21.8212C27.5541 21.9551 27.938 22.401 28.0088 22.4838C29.0275 21.3348 34.901 14.7006 38.1993 10.8834C39.048 9.90103 39.5405 8.69069 39.5425 7.44472C39.5425 4.59955 37.2308 2.31586 34.3459 2.31586V2.31672Z" fill="#195146"/>
</svg>
