<svg width="56" height="60" viewBox="0 0 56 60" fill="none" xmlns="http://www.w3.org/2000/svg">
<path d="M13.966 32.0042C6.67264 32.0042 5.01479 39.9491 4.94729 48.7022C4.94448 49.0664 5.16772 49.3944 5.50979 49.5477C6.68132 50.0726 8.10174 50.4891 9.68671 50.7597L18.2205 50.7639C19.8155 50.4933 21.2446 50.0752 22.4222 49.5477C22.7642 49.3944 22.9875 49.0664 22.9847 48.7022C22.9174 39.9491 21.2596 32.0042 13.966 32.0042Z" fill="#7D5A50"/>
<path d="M23.987 57.0563V55.7947C23.987 54.7159 23.4089 53.7198 22.4722 53.1845L17.982 50.6188C17.3577 50.2619 16.9722 49.5979 16.9722 48.8786V47.0355H10.9597V48.8788C10.9597 49.5981 10.5743 50.262 9.94988 50.6189L5.46008 53.1846C4.5234 53.7198 3.94531 54.7159 3.94531 55.7948V57.0565C3.94531 58.1634 4.8425 59.0606 5.94945 59.0606H21.9828C23.0896 59.0605 23.987 58.1633 23.987 57.0563Z" fill="#D29B6E"/>
<path d="M18.977 40.0209V45.3333C18.977 46.3893 18.4229 47.3678 17.5174 47.9112L14.9977 49.4232C14.363 49.8039 13.5701 49.8039 12.9354 49.4232L10.4156 47.9112C9.51012 47.3679 8.95605 46.3893 8.95605 45.3333V40.0209C8.95605 40.0209 14.9686 40.0209 16.9727 38.0167L18.977 40.0209Z" fill="#F0C087"/>
<path d="M22.4733 53.1846L19.5479 51.513C18.9953 52.2972 16.9014 55.0389 13.9671 56.0544C11.0329 55.0389 8.93883 52.2972 8.38629 51.513L5.46106 53.1846C4.52438 53.7198 3.94629 54.716 3.94629 55.7948V57.0565C3.94629 58.1634 4.84348 59.0606 5.95043 59.0606H21.9838C23.0907 59.0606 23.9879 58.1634 23.9879 57.0565V55.7948C23.9879 54.7159 23.4098 53.7198 22.4733 53.1846Z" fill="white"/>
<path d="M28.998 5.94983H4.94785C2.7432 5.94983 0.939453 7.75358 0.939453 9.95823V23.9874C0.939453 26.1921 2.7432 27.9958 4.94785 27.9958H17.975V31.7966C17.975 32.2431 18.5148 32.4664 18.8302 32.1508L22.9853 27.9958H28.9979C31.2025 27.9958 33.0063 26.1921 33.0063 23.9874V9.95823C33.0063 7.7537 31.2025 5.94983 28.998 5.94983Z" fill="white"/>
<path d="M26.9936 0.939453H51.0438C53.2484 0.939453 55.0522 2.7432 55.0522 4.94785V18.9771C55.0522 21.1817 53.2484 22.9855 51.0438 22.9855H38.0166V26.7862C38.0166 27.2327 37.4769 27.4561 37.1614 27.1405L33.0063 22.9855H26.9938C24.7891 22.9855 22.9854 21.1817 22.9854 18.9771V4.94773C22.9854 2.7432 24.7891 0.939453 26.9936 0.939453Z" fill="#3D8072"/>
<path d="M52.0993 51.3145L47.3338 49.5274C46.5516 49.234 46.0334 48.3093 46.0334 47.474H38.0167C38.0167 48.3093 37.4985 49.234 36.7163 49.5274L31.9507 51.3145C30.7774 51.7545 30 52.8762 30 54.1293V57.0564C30 58.1634 30.8972 59.0606 32.0041 59.0606H52.0459C53.1529 59.0606 54.05 58.1634 54.05 57.0564V54.1293C54.05 52.8762 53.2727 51.7545 52.0993 51.3145Z" fill="#D29B6E"/>
<path d="M52.0995 51.3144L48.2449 49.869L42.0251 55.0522L35.8052 49.869L31.9507 51.3144C30.7774 51.7544 30 52.8762 30 54.1293V57.0564C30 58.1633 30.8972 59.0605 32.0041 59.0605H52.0459C53.1529 59.0605 54.05 58.1633 54.05 57.0564V54.1293C54.0502 52.8762 53.2729 51.7544 52.0995 51.3144Z" fill="#3D8072"/>
<path d="M48.7544 35.2771L48.1291 44.6564C48.0709 45.5306 47.6341 46.3358 46.9332 46.8615L44.8306 48.4384C44.3103 48.8288 43.6774 49.0397 43.0269 49.0397H41.0227C40.3722 49.0397 39.7393 48.8288 39.219 48.4384L37.1164 46.8614C36.4156 46.3358 35.9787 45.5305 35.9205 44.6563L35.2952 35.277C35.141 32.9634 36.9759 31.002 39.2947 31.002H44.7549C47.0735 31.0021 48.9086 32.9636 48.7544 35.2771Z" fill="#F0C087"/>
<path d="M44.7549 31.0021H39.2947C36.976 31.0021 35.1409 32.9636 35.2952 35.277L35.5445 39.0164C35.8891 38.9927 44.4843 38.3748 48.6936 36.1888L48.7543 35.2771C48.9088 32.9636 47.0737 31.0021 44.7549 31.0021Z" fill="#5A4146"/>
<path d="M25.992 25.9916H32.4465C32.7934 25.3991 33.0066 24.7199 33.0066 23.9874V22.9854H26.9941C24.7895 22.9854 22.9857 21.1816 22.9857 18.977V5.94983H19.9795V19.979C19.9795 23.2944 22.6768 25.9916 25.992 25.9916Z" fill="#D7D7D7"/>
<path d="M17.7807 21.4626C18.4929 20.4819 18.9145 19.277 18.9145 17.975V14.9688C18.9145 11.6881 16.2453 9.01892 12.9646 9.01892C9.68395 9.01892 7.01465 11.688 7.01465 14.9688V17.975C7.01465 21.2556 9.68383 23.9248 12.9645 23.9248C14.2666 23.9248 15.4714 23.5033 16.4521 22.791L17.3106 23.6495C17.494 23.8329 17.7345 23.9247 17.9748 23.9247C18.2152 23.9247 18.4558 23.8331 18.6391 23.6495C19.006 23.2826 19.006 22.6879 18.6391 22.321L17.7807 21.4626ZM12.9645 22.046C10.7198 22.046 8.89352 20.2198 8.89352 17.975V14.9688C8.89352 12.7239 10.7198 10.8978 12.9645 10.8978C15.2092 10.8978 17.0355 12.7239 17.0355 14.9688V17.975C17.0355 18.7578 16.8129 19.4892 16.4286 20.1104L16.1341 19.8159C15.7671 19.449 15.1723 19.449 14.8055 19.8159C14.4386 20.1828 14.4386 20.7775 14.8055 21.1444L15.1 21.4389C14.4787 21.8234 13.7473 22.046 12.9645 22.046Z" fill="black"/>
<path d="M42.2966 6.29018C41.9866 4.94674 40.8072 4.00842 39.4284 4.00842H38.6086C37.23 4.00842 36.0505 4.94663 35.7403 6.29018L33.0926 17.7639C32.976 18.2694 33.2911 18.7738 33.7968 18.8905C34.3023 19.0071 34.8067 18.6921 34.9235 18.1865L35.6803 14.9063H42.3565L43.1134 18.1865C43.2137 18.621 43.6003 18.9149 44.028 18.9149C44.098 18.9149 44.1691 18.9071 44.2401 18.8906C44.7456 18.774 45.0609 18.2696 44.9443 17.764L42.2966 6.29018ZM36.1141 13.0272L37.5712 6.71264C37.6834 6.22678 38.11 5.88729 38.6087 5.88729H39.4285C39.9271 5.88729 40.3538 6.22666 40.4659 6.71264L41.923 13.0272H36.1141Z" fill="white"/>
</svg>
