<svg width="40" height="60" viewBox="0 0 40 60" fill="none" xmlns="http://www.w3.org/2000/svg">
<rect x="1" width="37" height="59" fill="white"/>
<path d="M1.01862 0C0.447928 0.00868756 -0.00796159 0.478023 0.000105429 1.04871V58.9658C0.000105429 59.5369 0.463235 60 1.03434 60L38.4366 59.9872C38.8761 59.928 39.2763 59.6184 39.3123 59.0535L39.3165 1.03423C39.3165 0.46313 38.8533 0 38.2822 0H1.04985V0.00206847C1.03951 0.00206847 1.02917 0 1.01924 0H1.01862ZM2.06857 2.06847H37.2476V57.9315H2.06857V2.06847ZM9.3082 4.15141C8.7371 4.15141 8.27418 4.61454 8.27397 5.18564V7.25411C8.27397 7.82521 8.7371 8.28834 9.3082 8.28834H29.9929C30.5642 8.28834 31.0271 7.82521 31.0271 7.25411V5.18564C31.0271 4.61454 30.5642 4.15141 29.9929 4.15141H9.3082ZM9.3082 10.3568C8.7371 10.3568 8.27418 10.8199 8.27397 11.391V13.4595C8.27397 14.0306 8.7371 14.4937 9.3082 14.4937H29.9929C30.5642 14.4937 31.0271 14.0306 31.0271 13.4595V11.391C31.0271 10.8199 30.5642 10.3568 29.9929 10.3568H9.3082ZM9.3082 20.6991C7.90971 20.6793 7.90971 22.7875 9.3082 22.7676H29.9929C31.3916 22.7875 31.3916 20.6793 29.9929 20.6991H9.3082ZM9.3082 24.8361C7.90971 24.8162 7.90971 26.9244 9.3082 26.9045H29.9929C31.3916 26.9244 31.3916 24.8162 29.9929 24.8361H9.3082ZM9.3082 28.973C7.90971 28.9532 7.90971 31.0613 9.3082 31.0415H29.9929C31.3916 31.0613 31.3916 28.9532 29.9929 28.973H9.3082ZM19.6505 37.2469C16.8068 37.2469 14.4794 39.5743 14.4794 42.418C14.4794 43.1571 14.638 43.8608 14.9206 44.4983L12.457 52.4546C12.1999 53.2858 13.0211 54.0436 13.829 53.7208L15.5136 53.0473L17.198 53.7208C17.7982 53.9609 18.4692 53.5973 18.5962 52.9633L19.6501 47.6928L20.7046 52.9633C20.8637 53.7905 21.6778 53.9626 22.2326 53.669L23.7875 53.0473L25.2422 53.6289C25.9465 54.1514 27.2071 53.5201 26.8397 52.442L24.3155 44.6421C24.6397 43.9673 24.8217 43.213 24.8217 42.418C24.8217 39.5743 22.4943 37.2469 19.6505 37.2469ZM19.6505 39.3153C21.3765 39.3153 22.7532 40.6921 22.7532 42.418C22.7532 44.144 21.3765 45.5207 19.6505 45.5207C17.9248 45.5207 16.5478 44.144 16.5478 42.418C16.5478 40.6921 17.9248 39.3153 19.6505 39.3153ZM16.4707 46.4863C16.8275 46.7662 17.2211 47.0018 17.6435 47.1811L16.8118 51.3383L15.8975 50.9726C15.6509 50.8739 15.376 50.8739 15.1295 50.9726L15.0745 50.9945L16.4707 46.4863ZM22.7574 46.5442L24.1931 50.9817L24.1714 50.9728C24.0429 50.9215 23.9056 50.8965 23.7674 50.8992C23.6425 50.9014 23.5192 50.9265 23.4034 50.9728L22.4891 51.3385L21.6576 47.1817C22.0514 47.0144 22.42 46.799 22.7574 46.5442Z" fill="#3D8072"/>
</svg>
