<svg width="54" height="56" viewBox="0 0 54 56" fill="none" xmlns="http://www.w3.org/2000/svg">
<path d="M49.3832 47.2902C52.3143 43.9927 53.963 39.4739 53.6577 34.5887C53.2303 28.6043 49.6274 23.4138 44.559 20.727C44.559 21.2155 44.559 21.704 44.559 22.2536C44.0705 33.7949 34.6054 43.5653 23.0031 44.4813C22.5756 44.4813 22.1482 44.5423 21.7207 44.5423C24.5297 49.2443 29.476 52.5418 35.155 52.9693C37.5365 53.0914 39.857 52.8472 42.0554 52.1144C43.1545 51.748 47.4901 53.8242 49.9327 55.1066C50.5434 55.4119 51.2762 54.8012 50.9709 54.1295C50.0549 51.8091 48.8336 47.962 49.3832 47.2902Z" fill="white"/>
<path d="M42.2386 22.1315C41.7501 32.6346 33.262 41.3669 22.8199 42.1608C19.8888 42.344 17.0187 41.9776 14.3319 41.1227C12.9274 40.6342 7.67577 43.26 4.62252 44.8477C3.88974 45.214 2.97377 44.4813 3.34016 43.6264C4.43933 40.6952 6.02702 35.9322 5.29424 35.1383C1.6914 31.047 -0.323746 25.5511 0.0426443 19.5057C0.775425 9.00248 9.56879 0.45338 20.072 0.0259251C32.5292 -0.584725 42.7882 9.6742 42.2386 22.1315Z" fill="#3D8072"/>
<path d="M21.5989 25.9785H19.9502C19.4617 25.9785 19.0342 25.5511 19.0342 25.0626C19.0342 23.9634 19.2174 23.0474 19.5838 22.3146C19.9502 21.5819 20.683 20.788 21.7821 19.9331C22.8813 19.0171 23.553 18.4675 23.7362 18.1622C24.0415 17.7348 24.2247 17.2462 24.2247 16.6967C24.2247 15.9639 23.9194 15.3532 23.3698 14.8036C22.7592 14.2541 22.0264 14.0098 20.9883 14.0098C20.0112 14.0098 19.2174 14.2541 18.6067 14.8036C18.2404 15.109 17.935 15.5364 17.6908 16.0249C17.3854 16.7577 16.6527 17.1852 15.8588 17.1241C14.6375 16.9409 13.9047 15.5975 14.5154 14.4983C14.8207 13.8877 15.3092 13.3381 15.8588 12.7885C17.1412 11.6893 18.7899 11.1397 20.8051 11.1397C22.9424 11.1397 24.6522 11.6893 25.9346 12.8496C27.2169 13.9487 27.8276 15.2922 27.8276 16.7577C27.8276 17.6126 27.5833 18.3454 27.1559 19.0782C26.7284 19.811 25.6903 20.8491 24.1637 22.0704C23.3698 22.7421 22.8813 23.2306 22.6981 23.6581C22.576 23.9634 22.4538 24.3909 22.4538 25.0015C22.4538 25.6122 22.0875 25.9785 21.5989 25.9785ZM19.0953 29.215V29.0318C19.0953 28.0548 19.8891 27.2609 20.8662 27.2609H21.0493C22.0264 27.2609 22.8202 28.0548 22.8202 29.0318V29.215C22.8202 30.192 22.0264 30.9859 21.0493 30.9859H20.8662C19.8891 30.9859 19.0953 30.192 19.0953 29.215Z" fill="white"/>
</svg>
