<svg width="53" height="60" viewBox="0 0 53 60" fill="none" xmlns="http://www.w3.org/2000/svg">
<path d="M26.4977 0L52.9951 15.2973C52.9951 20.8609 52.4671 25.7195 51.5822 30C46.1139 56.4517 26.4977 60 26.4977 60C26.4977 60 6.88184 56.4517 1.4134 30C0.528515 25.7195 0.000469208 20.861 0.000469208 15.2973L26.4977 0ZM26.484 54.6941C26.4881 54.6927 26.4936 54.6908 26.4977 54.6895V49.103V30H40.0014H45.8195C46.6011 26.5151 47.1213 22.5579 47.2719 18.0551L26.498 6.06187H26.4977V12.124V30H12.9895H7.1741C11.3061 48.4458 22.8267 53.5282 26.484 54.6941Z" fill="white"/>
<path d="M26.4974 0L0 15.2973C0 20.8609 0.528047 25.7195 1.41293 30C6.88125 56.4517 26.4974 60 26.4974 60C26.4974 60 46.1133 56.4517 51.5817 30C52.4666 25.7195 52.9946 20.861 52.9946 15.2973L26.4974 0ZM26.5111 54.6941C26.507 54.6927 26.5015 54.6908 26.4974 54.6895V49.103V30H12.9938H7.17563C6.39398 26.5151 5.87379 22.5579 5.7232 18.0551L26.4971 6.06187H26.4974V12.124V30H40.0056H45.821C41.689 48.4458 30.1684 53.5282 26.5111 54.6941Z" fill="#3D8072"/>
</svg>
