<svg width="44" height="59" viewBox="0 0 44 59" fill="none" xmlns="http://www.w3.org/2000/svg">
<path d="M11.2027 14.6195L7.94141 16.5024L11.0777 21.9349L14.2106 19.8292L11.2027 14.6195Z" fill="#3D8072"/>
<path d="M32.7345 14.6195L35.9958 16.5024L32.8594 21.9349L29.7266 19.8292L32.7345 14.6195Z" fill="#3D8072"/>
<path d="M23.8519 8.47345H20.0859V18.6014H23.8519V8.47345Z" fill="#3D8072"/>
<path d="M21.9679 16.0054L13.1807 37.032L21.9679 58.0585C33.5806 58.0585 42.9944 48.6447 42.9944 37.032C42.9944 25.4192 33.5806 16.0054 21.9679 16.0054Z" fill="#3D8072"/>
<path d="M0.941406 37.032C0.941406 48.6447 10.3552 58.0585 21.968 58.0585V16.0054C10.3552 16.0054 0.941406 25.4192 0.941406 37.032Z" fill="#3D8072"/>
<path d="M22.1426 19.7725V54.2913C31.58 54.1971 39.2287 46.4907 39.2287 37.0319C39.2287 27.5732 31.58 19.8666 22.1426 19.7725Z" fill="#E5FAFC"/>
<path d="M22.1421 19.7725C29.5033 19.8917 35.4623 27.5881 35.4623 37.0318C35.4623 46.4755 29.5033 54.1719 22.1421 54.2912C22.0844 54.2924 22.0254 54.2924 21.9676 54.2924C12.4499 54.2924 4.70703 46.5496 4.70703 37.0318C4.70703 27.514 12.4499 19.7712 21.9676 19.7712C22.0254 19.7712 22.0844 19.7712 22.1421 19.7725Z" fill="white"/>
<path d="M21.9679 38.9149C23.0078 38.9149 23.8508 38.0719 23.8508 37.0319C23.8508 35.992 23.0078 35.149 21.9679 35.149C20.928 35.149 20.085 35.992 20.085 37.0319C20.085 38.0719 20.928 38.9149 21.9679 38.9149Z" fill="#3D8072"/>
<path d="M21.9678 25.7341C21.4479 25.7341 21.0264 25.3125 21.0264 24.7926V23.5372C21.0264 23.0173 21.4479 22.5958 21.9678 22.5958C22.4878 22.5958 22.9093 23.0173 22.9093 23.5372V24.7926C22.9093 25.3125 22.4878 25.7341 21.9678 25.7341Z" fill="#3D8072"/>
<path d="M30.6222 29.3189C30.3813 29.3189 30.1402 29.227 29.9564 29.0431C29.5887 28.6754 29.5887 28.0793 29.9564 27.7117L30.8441 26.8241C31.2118 26.4564 31.8079 26.4564 32.1755 26.8241C32.5432 27.1918 32.5432 27.7879 32.1755 28.1555L31.2879 29.0431C31.1041 29.227 30.863 29.3189 30.6222 29.3189Z" fill="#3D8072"/>
<path d="M35.4625 37.9734H34.2071C33.6872 37.9734 33.2656 37.5519 33.2656 37.032C33.2656 36.512 33.6872 36.0905 34.2071 36.0905H35.4625C35.9824 36.0905 36.4039 36.512 36.4039 37.032C36.4039 37.5519 35.9824 37.9734 35.4625 37.9734Z" fill="#3D8072"/>
<path d="M31.5098 47.5157C31.269 47.5157 31.0279 47.4238 30.8441 47.2399L29.9564 46.3523C29.5887 45.9845 29.5887 45.3884 29.9564 45.0208C30.3242 44.6531 30.9203 44.6531 31.2879 45.0208L32.1755 45.9085C32.5432 46.2762 32.5432 46.8723 32.1755 47.2399C31.9917 47.4237 31.7508 47.5157 31.5098 47.5157Z" fill="#3D8072"/>
<path d="M21.9678 51.4681C21.4479 51.4681 21.0264 51.0465 21.0264 50.5266V49.2712C21.0264 48.7513 21.4479 48.3298 21.9678 48.3298C22.4878 48.3298 22.9093 48.7513 22.9093 49.2712V50.5266C22.9093 51.0465 22.4878 51.4681 21.9678 51.4681Z" fill="#3D8072"/>
<path d="M12.4249 47.5157C12.1841 47.5157 11.943 47.4238 11.7592 47.2399C11.3915 46.8722 11.3915 46.2761 11.7592 45.9085L12.6468 45.0208C13.0145 44.6531 13.6107 44.6531 13.9783 45.0208C14.346 45.3886 14.346 45.9847 13.9783 46.3523L13.0906 47.2399C12.9068 47.4237 12.6658 47.5157 12.4249 47.5157Z" fill="#3D8072"/>
<path d="M9.72808 37.9734H8.47271C7.95278 37.9734 7.53125 37.5519 7.53125 37.032C7.53125 36.512 7.95278 36.0905 8.47271 36.0905H9.72808C10.248 36.0905 10.6695 36.512 10.6695 37.032C10.6695 37.5519 10.248 37.9734 9.72808 37.9734Z" fill="#3D8072"/>
<path d="M13.3125 29.3189C13.0717 29.3189 12.8306 29.227 12.6468 29.0431L11.7592 28.1555C11.3915 27.7878 11.3915 27.1917 11.7592 26.8241C12.1269 26.4564 12.723 26.4564 13.0906 26.8241L13.9783 27.7117C14.346 28.0794 14.346 28.6755 13.9783 29.0431C13.7945 29.227 13.5536 29.3189 13.3125 29.3189Z" fill="#3D8072"/>
<path d="M35.3018 19.586L36.3396 17.7885L36.4042 17.8258C36.5525 17.9115 36.7144 17.9521 36.874 17.9521C37.1994 17.9521 37.5158 17.7832 37.6902 17.4813C37.9501 17.0309 37.7958 16.4552 37.3456 16.1953L33.2046 13.8045C33.204 13.8042 32.3243 13.2963 32.3243 13.2963C31.8738 13.0362 31.2982 13.1905 31.0381 13.6409C30.7782 14.0912 30.9325 14.6669 31.3827 14.927L31.4473 14.9643L30.4143 16.7537C28.6447 16.0139 26.7592 15.4988 24.7923 15.2452V12.5455C27.0695 11.4646 28.5583 9.15053 28.5583 6.5906C28.5583 2.95645 25.602 0 21.9679 0C18.3339 0 15.3776 2.95645 15.3776 6.59037C15.3776 9.1503 16.8664 11.4643 19.1435 12.5452V15.2449C17.1768 15.4986 15.2911 16.0137 13.5216 16.7535L12.4885 14.9641L12.5532 14.9268C13.0035 14.6668 13.1577 14.091 12.8977 13.6406C12.6378 13.1902 12.0619 13.0361 11.6116 13.2961L10.732 13.804C10.7314 13.8044 6.59037 16.1952 6.59037 16.1952C6.14003 16.4551 5.98585 17.0309 6.24582 17.4813C6.42017 17.7833 6.7366 17.9521 7.06202 17.9521C7.22174 17.9521 7.38364 17.9115 7.53183 17.8258L7.59636 17.7885L8.63417 19.586C3.38916 23.6041 1.01058e-09 29.9292 1.01058e-09 37.0318C-0.000115233 49.1452 9.85473 59 21.9679 59C34.0811 59 43.936 49.1452 43.936 37.0319C43.936 29.9294 40.5468 23.6043 35.3018 19.586ZM33.0781 15.9056L34.7088 16.847L33.754 18.5008C33.2258 18.1636 32.6819 17.8492 32.1243 17.5572L33.0781 15.9056ZM17.2605 6.59037C17.2605 3.9946 19.3722 1.88293 21.9679 1.88293C24.5637 1.88293 26.6754 3.9946 26.6754 6.59037C26.6754 8.09602 25.9546 9.48252 24.7924 10.3565V8.47341C24.7924 7.95348 24.3709 7.53195 23.851 7.53195H20.085C19.5651 7.53195 19.1435 7.95348 19.1435 8.47341V10.3566C17.9813 9.48252 17.2605 8.09602 17.2605 6.59037ZM21.0265 9.41488H22.9094V15.0853C22.5971 15.0722 22.2834 15.0639 21.9679 15.0639C21.6524 15.0639 21.3388 15.0722 21.0265 15.0853V9.41488ZM9.22705 16.847L10.8577 15.9056L11.8114 17.5575C11.2539 17.8495 10.71 18.1638 10.1818 18.501L9.22705 16.847ZM21.9679 57.1171C10.893 57.1171 1.88282 48.1069 1.88282 37.0319C1.88282 25.957 10.893 16.9468 21.9679 16.9468C33.0429 16.9468 42.0531 25.957 42.0531 37.0319C42.0531 48.1069 33.0429 57.1171 21.9679 57.1171Z" fill="#3D8072"/>
<path d="M21.0265 34.3694C19.9307 34.7581 19.1436 35.8045 19.1436 37.0319C19.1436 38.2592 19.9307 39.3058 21.0265 39.6943V41.1116C21.0265 41.6316 21.448 42.0531 21.9679 42.0531C22.4879 42.0531 22.9094 41.6316 22.9094 41.1116V39.6943C24.0052 39.3057 24.7923 38.2592 24.7923 37.0319C24.7923 35.8045 24.0052 34.7579 22.9094 34.3694V28.5586C22.9094 28.0386 22.4879 27.6171 21.9679 27.6171C21.448 27.6171 21.0265 28.0386 21.0265 28.5586V34.3694ZM21.9679 37.9734C21.4487 37.9734 21.0265 37.5511 21.0265 37.032C21.0265 36.5128 21.4488 36.0905 21.9679 36.0905C22.4871 36.0905 22.9094 36.5128 22.9094 37.032C22.9094 37.5511 22.4872 37.9734 21.9679 37.9734Z" fill="black"/>
</svg>
