<svg width="58" height="61" viewBox="0 0 58 61" fill="none" xmlns="http://www.w3.org/2000/svg">
<path d="M10.3571 22.7874C10.3571 25.6916 8.03862 28.046 5.17857 28.046C2.31853 28.046 0 25.6916 0 22.7874C0 19.8831 2.31853 17.5287 5.17857 17.5287C8.03862 17.5287 10.3571 19.8831 10.3571 22.7874Z" fill="url(#paint0_linear_397_664)"/>
<path d="M38.6667 12.6207C38.6667 14.9441 36.8118 16.8276 34.5238 16.8276C32.2358 16.8276 30.381 14.9441 30.381 12.6207C30.381 10.2973 32.2358 8.41379 34.5238 8.41379C36.8118 8.41379 38.6667 10.2973 38.6667 12.6207Z" fill="url(#paint1_linear_397_664)"/>
<path d="M56.619 5.6092C56.619 8.70707 54.146 11.2184 51.0952 11.2184C48.0445 11.2184 45.5714 8.70707 45.5714 5.6092C45.5714 2.51132 48.0445 0 51.0952 0C54.146 0 56.619 2.51132 56.619 5.6092Z" fill="url(#paint2_linear_397_664)"/>
<path d="M35.2143 23.1379C35.2143 24.6869 33.9777 25.9425 32.4524 25.9425C30.927 25.9425 29.6905 24.6869 29.6905 23.1379C29.6905 21.589 30.927 20.3333 32.4524 20.3333C33.9777 20.3333 35.2143 21.589 35.2143 23.1379Z" fill="url(#paint3_linear_397_664)"/>
<path d="M46.2619 25.2414C46.2619 27.1775 44.7162 28.7471 42.8095 28.7471C40.9028 28.7471 39.3571 27.1775 39.3571 25.2414C39.3571 23.3052 40.9028 21.7356 42.8095 21.7356C44.7162 21.7356 46.2619 23.3052 46.2619 25.2414Z" fill="url(#paint4_linear_397_664)"/>
<path d="M58 32.0762C58 35.174 55.5269 37.6854 52.4762 37.6854C49.4255 37.6854 46.9524 35.174 46.9524 32.0762C46.9524 28.9783 49.4255 26.467 52.4762 26.467C55.5269 26.467 58 28.9783 58 32.0762Z" fill="url(#paint5_linear_397_664)"/>
<path d="M10.3458 23.1379H17.2619H24.1667V24.5402H22.0952V23.9164H10.2375L10.3458 23.1379Z" fill="url(#paint6_linear_397_664)"/>
<path d="M24.1667 24.5402L30.381 24.6175L34.5238 24.5402V23.9164H24.1667V24.5402Z" fill="url(#paint7_linear_397_664)"/>
<path d="M34.5238 16.1264H35.2143L34.1786 22.0862H33.4881L34.5238 16.1264Z" fill="url(#paint8_linear_397_664)"/>
<path d="M48.5372 9.66975L49.1812 9.90272L42.9669 22.1728L42.119 22.0862L48.5372 9.66975Z" fill="url(#paint9_linear_397_664)"/>
<path d="M43.5 27.7982L43.8452 27.3448L50.0595 31.5517L49.7533 32.1758L43.5 27.7982Z" fill="url(#paint10_linear_397_664)"/>
<path d="M24.8571 32.954V34.3563H25.7786C25.5833 33.8563 25.3302 33.3861 25.0276 32.954H24.8571Z" fill="url(#paint11_linear_397_664)"/>
<path d="M41.0833 48.3793L42.8095 47.6782L42.4878 46.9845C41.8383 47.0147 41.2122 47.1361 40.6216 47.3363L41.0833 48.3793Z" fill="url(#paint12_linear_397_664)"/>
<path d="M31.7619 34.3563V32.954H30.6167C30.464 33.3926 30.381 33.8646 30.381 34.3563H31.7619Z" fill="url(#paint13_linear_397_664)"/>
<path d="M36.672 37.9542C37.1143 37.6813 37.5024 37.3266 37.8157 36.9109L36.5104 38.0489C36.565 38.0185 36.6189 37.9869 36.672 37.9542Z" fill="url(#paint14_linear_397_664)"/>
<path fill-rule="evenodd" clip-rule="evenodd" d="M25.0276 32.954C25.3302 33.3861 25.5833 33.8563 25.7786 34.3563H30.381C30.381 36.6797 32.2358 38.5632 34.5238 38.5632C35.2436 38.5632 35.9206 38.3768 36.5104 38.0489L40.6216 47.3363C37.8806 48.2655 35.9048 50.8927 35.9048 53.9885C35.9048 57.8608 38.9961 61 42.8095 61C46.6229 61 49.7143 57.8608 49.7143 53.9885C49.7143 50.1162 46.6229 46.977 42.8095 46.977C42.7017 46.977 42.5944 46.9795 42.4878 46.9845L37.8157 36.9109C38.3495 36.2026 38.6667 35.3171 38.6667 34.3563C38.6667 32.0329 36.8118 30.1494 34.5238 30.1494C32.72 30.1494 31.1854 31.3201 30.6167 32.954H25.0276ZM42.4878 46.9845L42.8095 47.6782L41.0833 48.3793L40.6216 47.3363C41.2122 47.1361 41.8383 47.0147 42.4878 46.9845ZM37.8157 36.9109L36.5104 38.0489C36.565 38.0185 36.6189 37.9869 36.672 37.9542C37.1143 37.6813 37.5024 37.3266 37.8157 36.9109ZM30.6167 32.954C30.464 33.3926 30.381 33.8646 30.381 34.3563H31.7619V32.954H30.6167Z" fill="url(#paint15_linear_397_664)"/>
<path d="M19.6786 43.4713C23.3013 43.4713 26.2381 40.4891 26.2381 36.8103C26.2381 35.9437 26.0751 35.1158 25.7786 34.3563H24.8571V32.954H25.0276C23.8387 31.2567 21.886 30.1494 19.6786 30.1494C16.0558 30.1494 13.119 33.1316 13.119 36.8103C13.119 40.4891 16.0558 43.4713 19.6786 43.4713Z" fill="url(#paint16_linear_397_664)"/>
<defs>
<linearGradient id="paint0_linear_397_664" x1="22.7857" y1="9.11494" x2="40.1141" y2="41.8511" gradientUnits="userSpaceOnUse">
<stop stop-color="#4B9491"/>
<stop offset="1" stop-color="#90BF22"/>
</linearGradient>
<linearGradient id="paint1_linear_397_664" x1="22.7857" y1="9.11494" x2="40.1141" y2="41.8511" gradientUnits="userSpaceOnUse">
<stop stop-color="#4B9491"/>
<stop offset="1" stop-color="#90BF22"/>
</linearGradient>
<linearGradient id="paint2_linear_397_664" x1="22.7857" y1="9.11494" x2="40.1141" y2="41.8511" gradientUnits="userSpaceOnUse">
<stop stop-color="#4B9491"/>
<stop offset="1" stop-color="#90BF22"/>
</linearGradient>
<linearGradient id="paint3_linear_397_664" x1="22.7857" y1="9.11494" x2="40.1141" y2="41.8511" gradientUnits="userSpaceOnUse">
<stop stop-color="#4B9491"/>
<stop offset="1" stop-color="#90BF22"/>
</linearGradient>
<linearGradient id="paint4_linear_397_664" x1="22.7857" y1="9.11494" x2="40.1141" y2="41.8511" gradientUnits="userSpaceOnUse">
<stop stop-color="#4B9491"/>
<stop offset="1" stop-color="#90BF22"/>
</linearGradient>
<linearGradient id="paint5_linear_397_664" x1="22.7857" y1="9.11494" x2="40.1141" y2="41.8511" gradientUnits="userSpaceOnUse">
<stop stop-color="#4B9491"/>
<stop offset="1" stop-color="#90BF22"/>
</linearGradient>
<linearGradient id="paint6_linear_397_664" x1="22.7857" y1="9.11494" x2="40.1141" y2="41.8511" gradientUnits="userSpaceOnUse">
<stop stop-color="#4B9491"/>
<stop offset="1" stop-color="#90BF22"/>
</linearGradient>
<linearGradient id="paint7_linear_397_664" x1="22.7857" y1="9.11494" x2="40.1141" y2="41.8511" gradientUnits="userSpaceOnUse">
<stop stop-color="#4B9491"/>
<stop offset="1" stop-color="#90BF22"/>
</linearGradient>
<linearGradient id="paint8_linear_397_664" x1="22.7857" y1="9.11494" x2="40.1141" y2="41.8511" gradientUnits="userSpaceOnUse">
<stop stop-color="#4B9491"/>
<stop offset="1" stop-color="#90BF22"/>
</linearGradient>
<linearGradient id="paint9_linear_397_664" x1="22.7857" y1="9.11494" x2="40.1141" y2="41.8511" gradientUnits="userSpaceOnUse">
<stop stop-color="#4B9491"/>
<stop offset="1" stop-color="#90BF22"/>
</linearGradient>
<linearGradient id="paint10_linear_397_664" x1="22.7857" y1="9.11494" x2="40.1141" y2="41.8511" gradientUnits="userSpaceOnUse">
<stop stop-color="#4B9491"/>
<stop offset="1" stop-color="#90BF22"/>
</linearGradient>
<linearGradient id="paint11_linear_397_664" x1="22.7857" y1="9.11494" x2="40.1141" y2="41.8511" gradientUnits="userSpaceOnUse">
<stop stop-color="#4B9491"/>
<stop offset="1" stop-color="#90BF22"/>
</linearGradient>
<linearGradient id="paint12_linear_397_664" x1="22.7857" y1="9.11494" x2="40.1141" y2="41.8511" gradientUnits="userSpaceOnUse">
<stop stop-color="#4B9491"/>
<stop offset="1" stop-color="#90BF22"/>
</linearGradient>
<linearGradient id="paint13_linear_397_664" x1="22.7857" y1="9.11494" x2="40.1141" y2="41.8511" gradientUnits="userSpaceOnUse">
<stop stop-color="#4B9491"/>
<stop offset="1" stop-color="#90BF22"/>
</linearGradient>
<linearGradient id="paint14_linear_397_664" x1="22.7857" y1="9.11494" x2="40.1141" y2="41.8511" gradientUnits="userSpaceOnUse">
<stop stop-color="#4B9491"/>
<stop offset="1" stop-color="#90BF22"/>
</linearGradient>
<linearGradient id="paint15_linear_397_664" x1="22.7857" y1="9.11494" x2="40.1141" y2="41.8511" gradientUnits="userSpaceOnUse">
<stop stop-color="#4B9491"/>
<stop offset="1" stop-color="#90BF22"/>
</linearGradient>
<linearGradient id="paint16_linear_397_664" x1="22.7857" y1="9.11494" x2="40.1141" y2="41.8511" gradientUnits="userSpaceOnUse">
<stop stop-color="#4B9491"/>
<stop offset="1" stop-color="#90BF22"/>
</linearGradient>
</defs>
</svg>
